<svg xmlns="http://www.w3.org/2000/svg" viewBox="0 0 500 500"><g id="freepik--background-complete--inject-2"><rect x="361.29" y="51.96" width="99.79" height="104.02" style="fill:#e0e0e0"></rect><rect x="354.53" y="51.96" width="99.79" height="104.02" style="fill:#ebebeb"></rect><rect x="367.94" y="65.94" width="72.96" height="76.05" style="fill:#fff"></rect><path d="M367.94,142.5a14,14,0,0,1-1.82,2.07c-1.17,1.22-2.81,2.88-4.65,4.69s-3.52,3.42-4.76,4.57a13.68,13.68,0,0,1-2.08,1.78,13.52,13.52,0,0,1,1.82-2.06c1.17-1.22,2.81-2.88,4.65-4.7s3.53-3.43,4.77-4.58A12.75,12.75,0,0,1,367.94,142.5Z" style="fill:#e0e0e0"></path><path d="M440.9,142.31a14,14,0,0,1,2.07,1.82c1.22,1.18,2.88,2.82,4.69,4.65s3.42,3.52,4.57,4.76a13.52,13.52,0,0,1,1.78,2.08,13.59,13.59,0,0,1-2.06-1.81c-1.22-1.17-2.88-2.82-4.7-4.66s-3.43-3.52-4.58-4.76A13,13,0,0,1,440.9,142.31Z" style="fill:#e0e0e0"></path><path d="M440.7,66.14a14.27,14.27,0,0,1,1.82-2.06c1.17-1.23,2.82-2.89,4.65-4.69s3.52-3.43,4.76-4.58A14.29,14.29,0,0,1,454,53a13,13,0,0,1-1.81,2.06c-1.17,1.22-2.82,2.89-4.66,4.7s-3.52,3.43-4.76,4.58A13,13,0,0,1,440.7,66.14Z" style="fill:#e0e0e0"></path><path d="M367.74,66.33a14.27,14.27,0,0,1-2.06-1.82c-1.23-1.17-2.89-2.82-4.69-4.65s-3.43-3.52-4.58-4.76A14.29,14.29,0,0,1,354.63,53a13,13,0,0,1,2.06,1.81c1.22,1.17,2.89,2.82,4.7,4.66S364.82,63,366,64.25A13,13,0,0,1,367.74,66.33Z" style="fill:#e0e0e0"></path><path d="M440.7,142s0-.13,0-.36,0-.61,0-1.06c0-.95,0-2.32,0-4.11,0-3.59,0-8.83-.07-15.49,0-13.32-.07-32.3-.12-55l.24.24-72.75,0h0l.28-.27c0,27.92,0,54,0,76.05l-.24-.23,52.7.12,14.79.06,3.91,0h1.36l-.32,0h-1l-3.86,0-14.74.06-52.85.12h-.23V142c0-22,0-48.13,0-76.05v-.27H368l72.75,0h.24v.24c-.05,22.79-.09,41.83-.12,55.18,0,6.64-.05,11.86-.06,15.44,0,1.77,0,3.12,0,4.06,0,.44,0,.78,0,1S440.7,142,440.7,142Z" style="fill:#e0e0e0"></path><path d="M387.2,97.71s-1.56,18.83,18.83,18.83C406,106.49,397.74,98.56,387.2,97.71Z" style="fill:#ebebeb"></path><path d="M424.51,97.73s-18.83-1.57-18.83,18.83C415.73,116.56,423.66,108.27,424.51,97.73Z" style="fill:#ebebeb"></path><path d="M405.12,87.42s-15.38,13.81.85,29.12C413.51,108.55,412.87,96,405.12,87.42Z" style="fill:#e0e0e0"></path><polygon points="378.99 379.25 353.01 321.21 337 321.21 374.46 379.25 378.99 379.25" style="fill:#e0e0e0"></polygon><path d="M146.29,199.34c-3.3-16.64-12.36-21.17-24.72-26.93s-7-18.95-7-18.95h-7.22s5.36,13.18-7,18.95S78.93,182.7,75.64,199.34,81,238.28,81,238.28h59.94S149.58,216,146.29,199.34Z" style="fill:#f5f5f5"></path><path d="M166.32,157.14H53.46L82,91.51h59.68Z" style="fill:#e0e0e0"></path><polygon points="47.76 322.19 370.55 322.19 402.22 322.19 402.22 237.31 47.76 237.31 47.76 322.19" style="fill:#ebebeb"></polygon><path d="M52.82,316.07s0-.45,0-1.31,0-2.14,0-3.79c0-3.35,0-8.23.08-14.52,0-12.58.09-30.74.15-53.18l-.29.29,170.41.12h0l-.41-.41c0,25.54,0,50.16,0,72.8l.39-.39-122.2.18L65.61,316l-9.48,0-2.46,0c-.55,0-.85,0-.85,0s.26,0,.8,0l2.42,0,9.4.05,35.33.11,122.47.18h.39v-.39c0-22.64,0-47.26,0-72.8v-.41h-.42L52.82,243h-.29v.29c.06,22.51.12,40.74.16,53.36,0,6.26.05,11.12.07,14.45,0,1.62,0,2.87,0,3.74S52.82,316.07,52.82,316.07Z" style="fill:#e0e0e0"></path><path d="M131.86,279.44a5.36,5.36,0,1,0,5.36-5.36A5.36,5.36,0,0,0,131.86,279.44Z" style="fill:#e0e0e0"></path><path d="M226.06,316.07s0-.45,0-1.31,0-2.14,0-3.79c0-3.35,0-8.23.08-14.52,0-12.58.09-30.74.16-53.18l-.3.29,170.41.12h0l-.41-.41c0,25.54,0,50.16,0,72.8l.39-.39-122.2.18-35.42.11-9.49,0-2.46,0c-.55,0-.85,0-.85,0s.26,0,.8,0l2.42,0,9.4.05,35.33.11,122.47.18h.39v-.39c0-22.64,0-47.26,0-72.8v-.41h-.42L226.06,243h-.29v.29c.07,22.51.12,40.74.16,53.36,0,6.26,0,11.12.07,14.45,0,1.62,0,2.87,0,3.74S226.06,316.07,226.06,316.07Z" style="fill:#e0e0e0"></path><path d="M305.1,279.44a5.37,5.37,0,1,0,5.36-5.36A5.36,5.36,0,0,0,305.1,279.44Z" style="fill:#e0e0e0"></path><polygon points="97.78 322.19 63.65 379.62 59.72 379.62 85.4 322.19 97.78 322.19" style="fill:#e0e0e0"></polygon><path d="M337.64,70.85c-2.94-.38-5.32-.95-5.3-1.29s2.45-.64,5.41-.67,5.35.54,5.31,1.29S340.58,71.22,337.64,70.85Z" style="fill:#e0e0e0"></path><path d="M332.48,81.14c-2-2.18-3.47-4.15-3.24-4.4s2.29,1.09,4.58,3,3.74,3.85,3.23,4.4S334.49,83.31,332.48,81.14Z" style="fill:#e0e0e0"></path><path d="M321.9,85.71c-.14-3,0-5.41.35-5.45s1.05,2.31,1.59,5.22.39,5.36-.35,5.45S322,88.67,321.9,85.71Z" style="fill:#e0e0e0"></path><path d="M310.86,82.41c1.79-2.36,3.48-4.13,3.77-4s-.68,2.44-2.14,5-3.14,4.35-3.77,3.94S309.06,84.77,310.86,82.41Z" style="fill:#e0e0e0"></path><path d="M304.52,72.8c2.89-.66,5.32-.93,5.42-.61s-2.08,1.44-4.86,2.48-5.21,1.33-5.42.61S301.63,73.45,304.52,72.8Z" style="fill:#e0e0e0"></path><path d="M305.84,61.35c2.64,1.36,4.68,2.71,4.54,3s-2.52-.24-5.31-1.22-4.84-2.34-4.55-3S303.2,60,305.84,61.35Z" style="fill:#e0e0e0"></path><path d="M314.2,53.43c1.16,2.73,1.85,5.08,1.55,5.23s-1.78-1.8-3.29-4.35-2.21-4.89-1.55-5.23S313.05,50.7,314.2,53.43Z" style="fill:#e0e0e0"></path><path d="M325.71,52.74c-.87,2.83-1.85,5.08-2.18,5s-.2-2.52.27-5.45,1.45-5.17,2.18-5S326.58,49.9,325.71,52.74Z" style="fill:#e0e0e0"></path><path d="M335,59.6c-2.49,1.61-4.68,2.7-4.88,2.43s1.46-2.06,3.71-4,4.44-3,4.88-2.43S337.45,58,335,59.6Z" style="fill:#e0e0e0"></path><path d="M367.33,183.93c-1.85-.23-3.34-.6-3.33-.81s1.54-.4,3.4-.42,3.36.34,3.34.81S369.18,184.16,367.33,183.93Z" style="fill:#e0e0e0"></path><path d="M364.09,190.39c-1.27-1.36-2.18-2.6-2-2.76s1.43.69,2.87,1.87,2.35,2.42,2,2.76S365.35,191.76,364.09,190.39Z" style="fill:#e0e0e0"></path><path d="M357.44,193.27c-.09-1.86,0-3.4.22-3.43s.66,1.45,1,3.28.24,3.37-.23,3.42S357.53,195.13,357.44,193.27Z" style="fill:#e0e0e0"></path><path d="M350.51,191.19c1.12-1.48,2.19-2.59,2.36-2.47s-.42,1.53-1.34,3.15-2,2.74-2.36,2.48S349.38,192.68,350.51,191.19Z" style="fill:#e0e0e0"></path><path d="M346.52,185.16c1.82-.41,3.35-.59,3.41-.38s-1.31.9-3.05,1.56-3.27.83-3.41.38S344.71,185.57,346.52,185.16Z" style="fill:#e0e0e0"></path><path d="M347.35,178c1.66.86,2.94,1.71,2.86,1.9s-1.58-.15-3.34-.77-3-1.46-2.86-1.89S345.7,177.11,347.35,178Z" style="fill:#e0e0e0"></path><path d="M352.61,173c.72,1.72,1.16,3.19,1,3.29s-1.12-1.14-2.07-2.74-1.39-3.07-1-3.28S351.89,171.27,352.61,173Z" style="fill:#e0e0e0"></path><path d="M359.84,172.55c-.55,1.78-1.17,3.2-1.37,3.15s-.13-1.59.17-3.43.91-3.25,1.37-3.14S360.39,170.77,359.84,172.55Z" style="fill:#e0e0e0"></path><path d="M365.65,176.86c-1.56,1-2.94,1.7-3.07,1.53s.92-1.29,2.33-2.51,2.79-1.9,3.07-1.53S367.21,175.85,365.65,176.86Z" style="fill:#e0e0e0"></path><path d="M142.34,221.92a6.79,6.79,0,0,1-2.34-.61,6.53,6.53,0,0,1,2.41-.27c1.31,0,2.37.26,2.34.62S143.64,222.14,142.34,221.92Z" style="fill:#e0e0e0"></path><path d="M139.46,226.16a6.43,6.43,0,0,1-1-2.22c.1-.07.87.7,1.71,1.72s1.27,2,1,2.22S140.1,227.3,139.46,226.16Z" style="fill:#e0e0e0"></path><path d="M134.35,226.54a6.92,6.92,0,0,1,1.12-2.15,6.59,6.59,0,0,1-.28,2.41c-.27,1.29-.77,2.26-1.12,2.15S133.85,227.76,134.35,226.54Z" style="fill:#e0e0e0"></path><path d="M130.86,222.8a6.52,6.52,0,0,1,2.38-.47,6.79,6.79,0,0,1-2.06,1.29c-1.17.59-2.24.8-2.38.46S129.6,223.17,130.86,222.8Z" style="fill:#e0e0e0"></path><path d="M131.61,217.73a6.69,6.69,0,0,1,1.85,1.57,6.63,6.63,0,0,1-2.29-.81c-1.19-.55-2-1.25-1.84-1.57S130.54,217,131.61,217.73Z" style="fill:#e0e0e0"></path><path d="M136,215.16a7,7,0,0,1-.07,2.42,6.45,6.45,0,0,1-.8-2.29c-.32-1.28-.28-2.37.07-2.42S136,213.84,136,215.16Z" style="fill:#e0e0e0"></path><path d="M140.81,217a6.65,6.65,0,0,1-1.94,1.46,6.76,6.76,0,0,1,1.3-2.06c.8-1,1.67-1.7,1.94-1.45S141.79,216.12,140.81,217Z" style="fill:#e0e0e0"></path><path d="M235.57,58.48c-2.47-.4-4.47-.93-4.46-1.17s2.08-.47,4.58-.5,4.51.49,4.46,1.17S238,58.89,235.57,58.48Z" style="fill:#e0e0e0"></path><path d="M230.09,66.52c-1.23-2.18-2.06-4.07-1.87-4.21s1.66,1.34,3.25,3.27,2.43,3.82,1.87,4.21S231.31,68.7,230.09,66.52Z" style="fill:#e0e0e0"></path><path d="M220.39,67.26c.94-2.32,1.9-4.15,2.13-4.08s0,2.12-.53,4.57-1.47,4.28-2.13,4.09S219.45,69.58,220.39,67.26Z" style="fill:#e0e0e0"></path><path d="M213.76,60.14c2.4-.71,4.43-1.11,4.52-.89s-1.67,1.32-3.9,2.45-4.27,1.52-4.52.88S211.36,60.85,213.76,60.14Z" style="fill:#e0e0e0"></path><path d="M215.19,50.51c2.05,1.44,3.63,2.78,3.51,3S216.63,53,214.36,52s-3.85-2.39-3.51-3S213.14,49.08,215.19,50.51Z" style="fill:#e0e0e0"></path><path d="M223.6,45.63c.16,2.49.09,4.56-.14,4.6s-.92-1.92-1.52-4.35-.53-4.5.14-4.6S223.44,43.13,223.6,45.63Z" style="fill:#e0e0e0"></path><path d="M232.67,49.15c-1.85,1.68-3.51,2.93-3.69,2.76s.93-1.91,2.46-3.9,3.18-3.22,3.68-2.76S234.52,47.46,232.67,49.15Z" style="fill:#e0e0e0"></path><path d="M183.46,177.94a18.42,18.42,0,0,1-3.29-.93,17.72,17.72,0,0,1,3.41-.23c1.86,0,3.35.38,3.3.93S185.27,178.36,183.46,177.94Z" style="fill:#e0e0e0"></path><path d="M178.55,182.36a18.66,18.66,0,0,1-.12-3.42,18.49,18.49,0,0,1,1.27,3.18c.61,1.76.67,3.3.13,3.42S178.71,184.22,178.55,182.36Z" style="fill:#e0e0e0"></path><path d="M172.83,179.06a19.06,19.06,0,0,1,3.21-1.18,18.19,18.19,0,0,1-2.62,2.2c-1.48,1.12-2.93,1.66-3.21,1.18S171.12,179.79,172.83,179.06Z" style="fill:#e0e0e0"></path><path d="M174.2,172.6a18.65,18.65,0,0,1,2.12,2.69,16.87,16.87,0,0,1-2.9-1.82c-1.53-1.06-2.49-2.27-2.12-2.69S173,171.2,174.2,172.6Z" style="fill:#e0e0e0"></path><path d="M180.77,171.9a17.86,17.86,0,0,1-1.91,2.85,18.84,18.84,0,0,1,.84-3.32c.54-1.78,1.39-3.07,1.9-2.85S181.73,170.31,180.77,171.9Z" style="fill:#e0e0e0"></path></g><g id="freepik--Floor--inject-2"><path d="M480.15,378.89c0,.15-103.07.26-230.18.26s-230.2-.11-230.2-.26,103.05-.26,230.2-.26S480.15,378.75,480.15,378.89Z" style="fill:#263238"></path></g><g id="freepik--Plant--inject-2"><path d="M418.72,332.94s-6.72-46.22-6.16-73.12,0-57.15,0-57.15h3.1s-2.1,53.39.18,85.58,8.29,44.69,8.29,44.69h-5.38" style="fill:#263238"></path><path d="M438.75,150.66a8.16,8.16,0,0,0-2.82-4.13c-2-1.24-4.54-.73-6.74.05-9.36,3.31-17.66,20.76-21.44,29.94l12.43,41.88C442.61,197.59,446.49,170.29,438.75,150.66Z" style="fill:#455a64"></path><path d="M435.2,148.23a2,2,0,0,1-.18.54l-.61,1.53c-.54,1.31-1.31,3.23-2.22,5.61-1.83,4.75-4.16,11.4-6.25,18.89s-3.5,14.4-4.38,19.42c-.45,2.5-.78,4.54-1,5.95l-.27,1.62a2.92,2.92,0,0,1-.12.56,2.24,2.24,0,0,1,0-.57c.05-.43.1-1,.17-1.64.15-1.42.43-3.46.83-6a178.24,178.24,0,0,1,10.65-38.38c1-2.37,1.78-4.27,2.38-5.56.28-.61.51-1.1.7-1.49A2.36,2.36,0,0,1,435.2,148.23Z" style="fill:#263238"></path><path d="M414.65,228.44C403,222,396.14,209.89,395.5,196.6c-.45-9.29,2.41-18.41,5.64-27.13a3.43,3.43,0,0,1,1.32-2c1-.56,2.2-.06,3.17.49,8.47,4.82,13.6,14,16.32,23.36a47.07,47.07,0,0,1,1.92,19.21,31.88,31.88,0,0,1-9.22,17.88" style="fill:#455a64"></path><path d="M414.65,228.44a3,3,0,0,1,0-.56c0-.43,0-1,0-1.61,0-1.39-.06-3.41-.18-5.9A159.72,159.72,0,0,0,412.24,201c-1.29-7.5-2.86-14.21-4-19.07-.57-2.37-1-4.32-1.37-5.75q-.23-.94-.36-1.56a2,2,0,0,1-.09-.56,3.38,3.38,0,0,1,.19.53l.45,1.54c.38,1.35.91,3.3,1.54,5.71,1.24,4.84,2.87,11.55,4.16,19.08a141,141,0,0,1,2,19.41c.07,2.5.07,4.53,0,5.92,0,.65,0,1.19-.07,1.61A2.05,2.05,0,0,1,414.65,228.44Z" style="fill:#263238"></path><g style="opacity:0.30000000000000004"><path d="M414.65,228.44C403,222,396.14,209.89,395.5,196.6c-.45-9.29,2.41-18.41,5.64-27.13a3.43,3.43,0,0,1,1.32-2c1-.56,2.2-.06,3.17.49,8.47,4.82,13.6,14,16.32,23.36a47.07,47.07,0,0,1,1.92,19.21,31.88,31.88,0,0,1-9.22,17.88"></path></g><path d="M427.8,299.17c11.46,2.51,20.9,10.6,32,14.53,7.32,2.61,15.6,3.53,21.44,8.64-1.4-3.54-4.73-5.9-8-7.91a142.42,142.42,0,0,0-29-13.83c-5.2-1.8-10.85-3.3-16.15-1.82" style="fill:#455a64"></path><path d="M428.12,298.78a.87.87,0,0,1,.29-.1c.19-.05.48-.15.87-.23a17.07,17.07,0,0,1,3.45-.38c3-.09,7.37.8,12.42,2.62a141.63,141.63,0,0,1,17.37,7.37c3.17,1.61,6.43,3.41,9.73,5.43a45,45,0,0,1,4.91,3.32,14.32,14.32,0,0,1,4,4.68c.12.25.23.51.33.75l.53,1.18-1-.86a28.43,28.43,0,0,0-10.34-5.3c-3.62-1.15-7.21-2-10.54-3.15A65.94,65.94,0,0,1,451,310c-2.76-1.46-5.28-2.9-7.59-4.17a77.36,77.36,0,0,0-11.28-5.34c-1.4-.48-2.49-.83-3.24-1l-.85-.24a1.08,1.08,0,0,1-.28-.1.92.92,0,0,1,.29,0l.87.19a33.33,33.33,0,0,1,3.28.92,73.3,73.3,0,0,1,11.4,5.2c2.33,1.25,4.86,2.67,7.61,4.1a66.82,66.82,0,0,0,9.05,4c3.3,1.14,6.89,2,10.54,3.12a28.87,28.87,0,0,1,10.55,5.4l-.46.32c-.1-.23-.2-.47-.31-.71a13.78,13.78,0,0,0-3.82-4.49A42.89,42.89,0,0,0,472,314c-3.28-2-6.53-3.82-9.68-5.44A147.89,147.89,0,0,0,445,301.07c-5-1.86-9.29-2.8-12.28-2.78a19.69,19.69,0,0,0-3.43.27C428.53,298.71,428.12,298.8,428.12,298.78Z" style="fill:#263238"></path><path d="M411.22,309.38c-14.36-.23-29.48-12.46-43.77-13.19,15-4.82,36.37-.88,43.77,13.19" style="fill:#455a64"></path><path d="M416.83,274.94c7.29-2.63,15.3-2.76,22.95-1.57s15.06,3.65,22.41,6.1c-.73-5-4.77-8.73-8.56-12.05a59.58,59.58,0,0,0-9-6.91,20,20,0,0,0-10.79-3.05,17.06,17.06,0,0,0-11.91,6,19.86,19.86,0,0,0-5.1,11.48" style="fill:#455a64"></path><path d="M416.83,274.94a.91.91,0,0,1,0-.29c0-.19,0-.47.08-.84a18.9,18.9,0,0,1,.69-3.16,20.85,20.85,0,0,1,6.7-9.73,16.33,16.33,0,0,1,16.82-2.4A33.18,33.18,0,0,1,450,264c1.4,1.14,2.78,2.35,4.19,3.58a47.52,47.52,0,0,1,4.1,3.95,15.48,15.48,0,0,1,4.15,7.91l.07.46-.44-.15a178.45,178.45,0,0,0-17.61-5.21,63,63,0,0,0-14.56-1.67,43.56,43.56,0,0,0-9.68,1.16c-1.11.26-2,.5-2.54.68l-.65.2-.23.05.21-.1.64-.25c.56-.21,1.41-.48,2.52-.78a41.44,41.44,0,0,1,9.72-1.33A62.17,62.17,0,0,1,444.6,274a171.91,171.91,0,0,1,17.68,5.17l-.37.31a14.91,14.91,0,0,0-4-7.62,48.1,48.1,0,0,0-4.05-3.91c-1.4-1.22-2.77-2.43-4.17-3.57a32.82,32.82,0,0,0-8.73-5.4,16.58,16.58,0,0,0-9.09-1.08,16.77,16.77,0,0,0-7.29,3.31,21.46,21.46,0,0,0-4.5,4.94,19,19,0,0,0-2.23,4.54,20.66,20.66,0,0,0-.79,3.11C416.91,274.56,416.85,274.94,416.83,274.94Z" style="fill:#263238"></path><path d="M387.36,259.08c-9-7.71-22.73-7-34.61-6.69,18.27,8.73,37.95,20.7,53.68,33.45C406.91,277.44,398.78,268.83,387.36,259.08Z" style="fill:#455a64"></path><g style="opacity:0.30000000000000004"><path d="M387.36,259.08c-9-7.71-22.73-7-34.61-6.69,18.27,8.73,37.95,20.7,53.68,33.45C406.91,277.44,398.78,268.83,387.36,259.08Z"></path></g><path d="M420.89,248.43a101.2,101.2,0,0,1,13.9-8.08c4.76-2.16,9.2-5.6,13.8-8.09,6-3.23,11.11-7.71,16.58-11.71s11.48-7.61,18.17-8.67a35.76,35.76,0,0,0-16.53,1,105.46,105.46,0,0,0-15.56,6c-7.06,3.18-14.23,6.43-20,11.59s-11,10.24-10.37,18" style="fill:#455a64"></path><path d="M420.89,248.43a2.33,2.33,0,0,1,0-.39c0-.25-.05-.64-.05-1.14a14.2,14.2,0,0,1,.72-4.35,18.88,18.88,0,0,1,3.47-6,58.17,58.17,0,0,1,6.53-6.53,50.92,50.92,0,0,1,9.25-6.31c3.53-1.93,7.45-3.7,11.57-5.56a107,107,0,0,1,13.2-5.2,39,39,0,0,1,15.12-1.73c.95.09,1.88.26,2.74.42l1.6.31-1.62.25a36.49,36.49,0,0,0-13.45,5.48c-4,2.52-7.58,5.39-11.06,8a79.59,79.59,0,0,1-10.3,6.88c-3.38,1.84-6.34,3.91-9.17,5.58a45.69,45.69,0,0,1-4.15,2.21c-1.34.62-2.59,1.21-3.74,1.82-2.31,1.2-4.23,2.34-5.79,3.29l-3.57,2.23-.93.58a1.34,1.34,0,0,1-.33.18,3.45,3.45,0,0,1,.3-.23l.9-.62c.79-.55,2-1.34,3.51-2.32s3.46-2.16,5.76-3.39,5.06-2.34,7.83-4.09,5.75-3.77,9.15-5.65a80.26,80.26,0,0,0,10.21-6.88c3.47-2.64,7-5.53,11.08-8.08a36.88,36.88,0,0,1,13.67-5.57l0,.56c-.84-.16-1.75-.32-2.68-.41a38.78,38.78,0,0,0-14.9,1.69,107.73,107.73,0,0,0-13.15,5.15c-4.12,1.85-8,3.59-11.55,5.5a50.45,50.45,0,0,0-9.21,6.2,60.14,60.14,0,0,0-6.56,6.42,19.16,19.16,0,0,0-3.5,5.91A16.61,16.61,0,0,0,420.89,248.43Z" style="fill:#263238"></path><path d="M459.5,309.38s-.17-.05-.46-.2l-1.25-.65c-1.08-.57-2.63-1.42-4.59-2.41-1-.51-2-1-3.2-1.59s-2.4-1.13-3.73-1.71a55.07,55.07,0,0,0-8.84-3.08,19,19,0,0,0-9.21-.23,26.36,26.36,0,0,0-3.9,1.17,19.69,19.69,0,0,0-3.15,1.61,20.26,20.26,0,0,0-4,3.27c-.83.9-1.24,1.44-1.27,1.41s.07-.15.25-.42a12.83,12.83,0,0,1,.87-1.12A18.71,18.71,0,0,1,421,302a19.82,19.82,0,0,1,3.19-1.71,26.53,26.53,0,0,1,3.95-1.23,19.3,19.3,0,0,1,9.44.19,52.73,52.73,0,0,1,8.91,3.15c1.33.59,2.58,1.17,3.73,1.76s2.22,1.12,3.18,1.65c1.94,1,3.47,1.93,4.52,2.56l1.21.73C459.37,309.27,459.51,309.36,459.5,309.38Z" style="fill:#263238"></path><path d="M400.51,302.26a3.83,3.83,0,0,1,.9.27,21.55,21.55,0,0,1,2.34,1,28.69,28.69,0,0,1,6.86,4.87,28.4,28.4,0,0,1,5.13,6.66,18.71,18.71,0,0,1,1.11,2.3,2.83,2.83,0,0,1,.3.88c-.08,0-.62-1.17-1.72-3a32.55,32.55,0,0,0-5.18-6.47,31.93,31.93,0,0,0-6.67-4.91C401.71,302.84,400.48,302.35,400.51,302.26Z" style="fill:#263238"></path><path d="M368.74,258.36a3.91,3.91,0,0,1,.61.18l1.73.62,2.71,1c1.06.39,2.21,1,3.51,1.55A82.62,82.62,0,0,1,396,273.62a91,91,0,0,1,8.71,8.58A96.5,96.5,0,0,1,410.9,290c1.64,2.32,2.88,4.26,3.73,5.59.41.64.73,1.15,1,1.54a4.07,4.07,0,0,1,.32.56,2.44,2.44,0,0,1-.41-.5c-.25-.33-.61-.83-1.06-1.49-.9-1.3-2.19-3.2-3.86-5.49s-3.77-4.93-6.25-7.74a94.15,94.15,0,0,0-8.7-8.5,87.77,87.77,0,0,0-18.51-12c-1.29-.59-2.42-1.19-3.47-1.61L371,259.34l-1.69-.7A3.57,3.57,0,0,1,368.74,258.36Z" style="fill:#263238"></path><path d="M438.37,266.87a5.27,5.27,0,0,1-1.14-.15l-1.32-.24c-.51-.1-1.11-.11-1.76-.17a17.8,17.8,0,0,0-14.36,5.27,20.49,20.49,0,0,0-2.89,3.57,29.93,29.93,0,0,0-2,3.77,4,4,0,0,1,.29-1.12,16.21,16.21,0,0,1,1.37-2.84,19.73,19.73,0,0,1,2.86-3.71,17.52,17.52,0,0,1,14.73-5.31c.66.1,1.26.13,1.78.25l1.31.33A4.38,4.38,0,0,1,438.37,266.87Z" style="fill:#263238"></path><path d="M452.8,222.1a3.3,3.3,0,0,1-.54.33l-1.6.87c-1.39.75-3.4,1.86-5.83,3.3s-5.28,3.24-8.32,5.41a69.06,69.06,0,0,0-9.29,7.78,23.61,23.61,0,0,0-3.8,4.92c-.94,1.8-1.84,3.55-2.66,5.22a93.35,93.35,0,0,0-4,9.09,53.88,53.88,0,0,0-1.94,6.39c-.37,1.54-.5,2.4-.55,2.4a2.77,2.77,0,0,1,.05-.64c.06-.41.14-1,.3-1.8a47.1,47.1,0,0,1,1.8-6.48,88.05,88.05,0,0,1,3.9-9.16c.82-1.69,1.71-3.44,2.65-5.25a23.82,23.82,0,0,1,3.87-5,68.19,68.19,0,0,1,9.38-7.81c3.07-2.16,6-3.92,8.41-5.34s4.5-2.46,5.93-3.15l1.64-.79A3.11,3.11,0,0,1,452.8,222.1Z" style="fill:#263238"></path><path d="M412.54,265.57a6.2,6.2,0,0,1-.28-1.21c-.17-.88-.38-2-.63-3.31a84,84,0,0,0-6.82-21.11c-.55-1.22-1-2.25-1.4-3.07a6.34,6.34,0,0,1-.46-1.16,5.57,5.57,0,0,1,.64,1.07c.38.7.92,1.72,1.55,3A71,71,0,0,1,412,261c.22,1.41.38,2.56.47,3.35A5,5,0,0,1,412.54,265.57Z" style="fill:#263238"></path><path d="M411.5,232.91a38.91,38.91,0,0,0-4.66-15.5,51.17,51.17,0,0,0-34.69-25.87q16.07,23.93,32.11,47.86l4.15,8.54C411.24,243.3,411.86,238.33,411.5,232.91Z" style="fill:#455a64"></path><rect x="382.9" y="327.22" width="74.66" height="13.23" style="fill:#FFC100"></rect><polygon points="388.48 337.83 394.83 378.89 444.4 378.89 451.99 337.83 388.48 337.83" style="fill:#FFC100"></polygon><path d="M457.52,340.47c0,.15-16.84.27-37.61.27s-37.62-.12-37.62-.27,16.84-.26,37.62-.26S457.52,340.33,457.52,340.47Z" style="fill:#263238"></path></g><g id="freepik--Hair--inject-2"><path d="M169.25,405.34a12,12,0,0,1-3.06-1.81,12.49,12.49,0,0,1-2.75-2.25,12.31,12.31,0,0,1,3.05,1.82A12.84,12.84,0,0,1,169.25,405.34Z" style="fill:#455a64"></path><path d="M108.89,324.82a22.77,22.77,0,0,1,4.32,2.22,22,22,0,0,1,4.05,2.67,23.21,23.21,0,0,1-4.31-2.22A22.77,22.77,0,0,1,108.89,324.82Z" style="fill:#455a64"></path><path d="M164.6,410a11.8,11.8,0,0,1-1.69-3,11.41,11.41,0,0,1-1.21-3.2,11.62,11.62,0,0,1,1.69,3A11.41,11.41,0,0,1,164.6,410Z" style="fill:#455a64"></path><path d="M184.86,316.1a5.37,5.37,0,0,1-.31,2.09,12,12,0,0,1-2.5,4.48,11.81,11.81,0,0,1-4.14,3,5.34,5.34,0,0,1-2,.56c0-.09.75-.31,1.89-.9a13.48,13.48,0,0,0,6.44-7.28C184.64,316.88,184.77,316.08,184.86,316.1Z" style="fill:#455a64"></path><path d="M143.14,307.28a5.82,5.82,0,0,1-2-1.09,12.67,12.67,0,0,1-5.15-9.6,5.83,5.83,0,0,1,.23-2.31c.09,0,0,.89.14,2.28a14,14,0,0,0,5,9.34C142.4,306.79,143.18,307.2,143.14,307.28Z" style="fill:#455a64"></path><path d="M229.77,327.1a9.58,9.58,0,0,1-2.6,4.7,9.74,9.74,0,0,1-4.45,3,19,19,0,0,0,7.05-7.72Z" style="fill:#455a64"></path><path d="M208.29,337a12.45,12.45,0,0,1-2.36-11.42,25.37,25.37,0,0,0,.27,5.9A25.94,25.94,0,0,0,208.29,337Z" style="fill:#455a64"></path><path d="M191.83,366.71a13,13,0,0,1-4.36,9.4,46.66,46.66,0,0,0,2.68-4.46A45.57,45.57,0,0,0,191.83,366.71Z" style="fill:#455a64"></path></g><g id="freepik--speech-bubble--inject-2"><path d="M195.91,119.13l-3.5-12.07a38.19,38.19,0,1,0-9.14,10.16v0Z" style="fill:#fff"></path><path d="M195.91,119.13l-.8-.1-2.4-.34-9.47-1.34a.13.13,0,0,1-.1-.13l0,0v0l.16.16a38.05,38.05,0,0,1-23.21,8.07,42.25,42.25,0,0,1-6.34-.53,38.08,38.08,0,0,1-24.43-14.75,37.95,37.95,0,0,1-6.52-32.36,37.41,37.41,0,0,1,8.55-16.11c.53-.58,1-1.17,1.59-1.73l1.73-1.57.86-.79.94-.69,1.85-1.39c.64-.44,1.31-.81,2-1.22a19.71,19.71,0,0,1,2-1.13,34.17,34.17,0,0,1,4.16-1.84A38.79,38.79,0,0,1,163.82,49a38.37,38.37,0,0,1,33,27.94c.13.53.27,1.06.4,1.58a11.1,11.1,0,0,1,.33,1.58c.16,1,.32,2.08.47,3.1a54.51,54.51,0,0,1,.13,6,38,38,0,0,1-5.66,18V107c1.11,3.94,2,7,2.55,9l.64,2.3.21.76s-.1-.28-.25-.8-.4-1.31-.7-2.31l-2.66-8.93a.1.1,0,0,1,0-.09,38,38,0,0,0,5.5-17.88,53.5,53.5,0,0,0-.15-5.89c-.16-1-.31-2-.47-3.07a12.06,12.06,0,0,0-.34-1.56c-.13-.52-.27-1-.4-1.57a38,38,0,0,0-32.68-27.55,38.48,38.48,0,0,0-17.11,2.28,33.84,33.84,0,0,0-4.1,1.81,18.18,18.18,0,0,0-2,1.12c-.64.4-1.31.77-1.93,1.2l-1.84,1.37-.92.68-.85.78-1.71,1.55c-.54.55-1,1.14-1.57,1.71a37.06,37.06,0,0,0-8.43,15.88,37.81,37.81,0,0,0,30.51,46.6,42.89,42.89,0,0,0,6.28.55,38,38,0,0,0,23.07-7.88.11.11,0,0,1,.16,0,.12.12,0,0,1,0,.14v0l-.08-.18,9.37,1.47,2.43.39C195.61,119.07,195.91,119.13,195.91,119.13Z" style="fill:#263238"></path><path d="M158.48,102a4,4,0,0,1-1.28-3,3.92,3.92,0,0,1,1.26-3,5,5,0,0,1,6.44,0,3.91,3.91,0,0,1,1.25,3,4,4,0,0,1-1.28,3,4.74,4.74,0,0,1-6.39,0ZM157.34,70.2H166l-1.44,21.31h-5.78Z" style="fill:#263238"></path></g><g id="freepik--Character--inject-2"><path d="M253.21,82.14c-16.14,1-34.06,22.12-35,38.47-.44,8,1.23,17.07-3.83,23.32-3.07,3.8-8.23,5.85-10.27,10.28-1.6,3.47-.85,7.61.74,11.08s4,6.53,5.73,9.91c7.13,13.51,4.15,29.94,6.62,45,1.17,7.18,3.84,14.47,9.34,19.24s13,6.37,20.2,6.25c14.06-.23,27.39-6.41,41.4-7.58,10.76-.9,21.61,1.19,32.36.19s22.26-6.23,25.88-16.4c-9.26-1.79-16.17-11.66-14.66-21,1.1-6.79,5.89-13.87,2.61-19.91s-13.57-7.31-14.74-14.22c-1.11-6.63,7.62-11.84,6.7-18.5-.53-3.84-4.05-6.41-6.94-9-12-10.66-16.51-27.22-20.43-42.79" style="fill:#263238"></path><path d="M303.35,120.19c1.08-11.6-4.31-26.88-15.94-27.48l-27.54,2.53A19.88,19.88,0,0,0,242.21,111c-.1.43-.05-.11-.1.22l-5,69.47,13.56,42.6h0l23.49-34.54c.91-5.59,2.26-14,2.26-14s15.06-.13,21.11-18.79C300.5,146.62,302.14,133.08,303.35,120.19Z" style="fill:#ffbf9d"></path><path d="M298.15,135.87c-.36.27-2-1.4-4.64-1.81s-4.79.61-5,.24c-.11-.16.29-.69,1.23-1.17a6.78,6.78,0,0,1,4.08-.59,6.52,6.52,0,0,1,3.63,1.84C298.14,135.13,298.32,135.75,298.15,135.87Z" style="fill:#263238"></path><path d="M273.68,132.6c-.36.27-2-1.4-4.64-1.81s-4.79.61-5,.24c-.12-.17.28-.7,1.22-1.18a6.8,6.8,0,0,1,4.08-.58A6.48,6.48,0,0,1,273,131.1C273.67,131.85,273.85,132.48,273.68,132.6Z" style="fill:#263238"></path><path d="M282.67,131.37c1.94,5.44,2,5.77,2.64,11.51a3,3,0,0,1-.11,1.57c-.45,1-1.78,1.24-2.89,1.32s-2.46,0-3.05-.91A3.08,3.08,0,0,1,279,143c.31-4.38.46-6.57.77-11,0,0,1.16-3,2.72-1.14" style="fill:#fca790"></path><path d="M279.14,145.28c0-.15,1.7-.17,4.41-.09.69,0,1.35,0,1.53-.44a3.46,3.46,0,0,0-.13-2.07c-.38-1.74-.77-3.55-1.19-5.45-1.62-7.75-2.67-14.08-2.36-14.15s1.88,6.17,3.49,13.92c.39,1.91.75,3.73,1.1,5.47a3.88,3.88,0,0,1-.07,2.7,1.67,1.67,0,0,1-1.26.81,4.08,4.08,0,0,1-1.17,0C280.79,145.69,279.12,145.44,279.14,145.28Z" style="fill:#263238"></path><path d="M252.09,163.82s4.13,14.14,23.57,15.37l.72-4.5A48.83,48.83,0,0,1,252.09,163.82Z" style="fill:#ff9a6c"></path><path d="M266,115.73c.26-.72,2.93-.39,6.06-.77s5.68-1.25,6.09-.6c.19.31-.25,1-1.27,1.7a10.58,10.58,0,0,1-9.26,1C266.41,116.65,265.83,116.08,266,115.73Z" style="fill:#263238"></path><path d="M290.62,116c.6-.47,2.23.58,4.38,1.14s4.07.59,4.33,1.31c.11.35-.32.87-1.25,1.23a6.55,6.55,0,0,1-7-2C290.44,116.93,290.34,116.26,290.62,116Z" style="fill:#263238"></path><path d="M280.17,80.75c-11.43-2.91-21.76-2.31-31.75,4-9.17,5.76-13.75,9.75-16.19,22.66a45.8,45.8,0,0,0,0,16.19c.77,3.75,1.83,13.35,5.62,13.75,7.53.8,5.63-1.94,7.2-4.92,1.08-2.06,3-3.52,4.17-5.55,4.82-8.62,10.22-17.11,17.68-23.57S284.21,92.54,294,93.63l6.16,1.21C294,85.54,287.71,82.66,280.17,80.75Z" style="fill:#FFC100"></path><path d="M300.27,94.42c-3.27-4.59-8.15-7.85-13.34-10a37.07,37.07,0,0,0-14.19-3h0c-17.66-.15-28.62,10.9-32.77,20.83-2,4.74-1.92,10.08-2.1,15.21-.1,2.61,1.32,5.41,2.07,7.91s1.69,12.42,4.28,12.75c5.94.75,6.95-5.42,7.39-8.87a15.85,15.85,0,0,1,1.67-5.61c2.14-3.95,8.59-3.2,11.29-6.78,1.95-2.59,1.21-6.55,3.28-9s5.68-2.37,8.78-3A16.59,16.59,0,0,0,288.24,95l.24,0c11.54,2.17,14.37,16.15,15,21.47C306.05,109.52,304.61,100.51,300.27,94.42Z" style="fill:#263238"></path><path d="M275.48,150.5a5.18,5.18,0,0,0-3.33,4.12,1.45,1.45,0,0,0,.13.94,1.67,1.67,0,0,0,.63.51l1.45.81a3.92,3.92,0,0,0,2.61.72,3.66,3.66,0,0,0,2.16-2.07,27.94,27.94,0,0,0,1.81-4A5.67,5.67,0,0,0,275.48,150.5Z" style="fill:#ff9a6c"></path><path d="M277.57,157.37a1.25,1.25,0,0,1-.68.25,4.53,4.53,0,0,1-1.94-.23,4.87,4.87,0,0,1-2.51-1.51,2.27,2.27,0,0,1-.32-1.78,4.25,4.25,0,0,1,.71-1.76,5.66,5.66,0,0,1,5.84-2.12,3.63,3.63,0,0,1,2.27,1.33,7.67,7.67,0,0,0-2.34-1,5.49,5.49,0,0,0-2.69.17,5.26,5.26,0,0,0-2.65,1.89,3.83,3.83,0,0,0-.64,1.54,1.78,1.78,0,0,0,.22,1.42,4.65,4.65,0,0,0,2.23,1.44A4.87,4.87,0,0,0,277.57,157.37Z" style="fill:#263238"></path><path d="M245.37,129.8c.13-1.32-1.06-4.58-2.33-4.93-3.42-.91-9.7-1.3-10.7,7.51-1.37,12,11,10.92,11.06,10.58S244.89,134.34,245.37,129.8Z" style="fill:#ffbf9d"></path><path d="M240.24,138c-.05,0-.22.13-.6.25a2.09,2.09,0,0,1-1.57-.15c-1.22-.61-2.06-2.75-1.87-4.92a6.88,6.88,0,0,1,.93-2.94,2.41,2.41,0,0,1,1.76-1.43,1.07,1.07,0,0,1,1.17.71c.12.36,0,.59.08.62s.28-.17.24-.68a1.3,1.3,0,0,0-.39-.81,1.56,1.56,0,0,0-1.12-.44,3,3,0,0,0-2.4,1.62,7.07,7.07,0,0,0-1.11,3.27c-.2,2.44.78,4.85,2.47,5.55a2.25,2.25,0,0,0,1.95-.1C240.19,138.27,240.28,138,240.24,138Z" style="fill:#ff9a6c"></path><path d="M282.24,113.55c.05,0,.33.23.56.8a3.79,3.79,0,0,1,.12,2.36,3.7,3.7,0,0,1-1.29,2c-.49.38-.86.47-.89.41a6.38,6.38,0,0,0,1.68-2.52A6.51,6.51,0,0,0,282.24,113.55Z" style="fill:#ff9a6c"></path><path d="M287.67,119.84s-.39-.1-.8-.55a3.84,3.84,0,0,1-.94-2.17,3.78,3.78,0,0,1,.52-2.3c.32-.52.64-.74.68-.7a6.62,6.62,0,0,0-.69,2.95A6.56,6.56,0,0,0,287.67,119.84Z" style="fill:#ff9a6c"></path><path d="M271.57,133.53a69.89,69.89,0,0,0-8.23-1.59,1.1,1.1,0,0,0-.65.05.74.74,0,0,0-.25.94,2,2,0,0,0,.73.77,11.74,11.74,0,0,0,7.5,2.06,2.77,2.77,0,0,0,1.41-.39,1.18,1.18,0,0,0,.53-1.26.76.76,0,0,0-1.17-.38" style="fill:#fca790"></path><path d="M297.33,138.31a67.17,67.17,0,0,0-8.23-1.59,1.07,1.07,0,0,0-.64,0,.75.75,0,0,0-.25,1,1.9,1.9,0,0,0,.73.76,11.73,11.73,0,0,0,7.5,2.07,2.91,2.91,0,0,0,1.4-.39,1.19,1.19,0,0,0,.54-1.27.75.75,0,0,0-1.17-.37" style="fill:#fca790"></path><polygon points="270.66 406.76 291.7 398.26 277.49 364.72 255.07 375.57 270.66 406.76" style="fill:#ffbf9d"></polygon><path d="M258,375.42l-32.33,16.75-12.9,1.33c-4.89.5-3.56,4.38-3.05,9.27l6.15,59.73s6.28,2.2,7.7-2.4S240,420.2,240,420.2l30.77-13.5Z" style="fill:#e0e0e0"></path><path d="M258,375.42s.08.17.23.52l.67,1.57c.59,1.43,1.45,3.5,2.56,6.15l9.49,23,.08.19-.19.08-30.75,13.57.14-.15-9.61,23c-1.67,4-3.38,8.18-5.06,12.41-.42,1.06-.83,2.13-1.23,3.2-.21.54-.35,1.05-.59,1.63a3.56,3.56,0,0,1-.41.83l-.26.39-.33.33a5,5,0,0,1-3.4,1.26,10.56,10.56,0,0,1-3.57-.53l-.19-.06,0-.2c0-.19,0-.4-.06-.61-1.67-16.24-3.25-31.72-4.7-45.82l-1.05-10.31c-.17-1.68-.32-3.32-.53-4.94A15.06,15.06,0,0,1,209,396a3.14,3.14,0,0,1,1.4-2,5.74,5.74,0,0,1,2.31-.68l4.46-.45,8.42-.85-.08,0,23.77-12.18,6.43-3.27,1.67-.83c.37-.19.56-.27.56-.27l-.58.33-1.68.89L249.29,380l-23.54,12.33,0,0h0l-8.41.88-4.46.47a5.46,5.46,0,0,0-2.09.62,2.57,2.57,0,0,0-1.17,1.73,15,15,0,0,0,.18,4.7c.22,1.62.37,3.27.55,4.94L211.35,416c1.46,14.1,3.06,29.58,4.74,45.81l.06.62-.2-.26a10.31,10.31,0,0,0,3.35.5,4.37,4.37,0,0,0,3-1.09,7.34,7.34,0,0,0,1.44-2.95c.41-1.08.82-2.15,1.24-3.21,1.69-4.24,3.4-8.38,5.08-12.42l9.66-23,0-.1.1,0,30.8-13.45-.11.28-9.22-22.92c-1.08-2.69-1.91-4.79-2.49-6.23-.27-.7-.49-1.24-.64-1.63Z" style="fill:#263238"></path><path d="M259.58,371.66l-7.8,4.64a2.71,2.71,0,0,0-1.07,3.47L264,408.34a2.71,2.71,0,0,0,3.34,1.42l8.35-2.88a2.71,2.71,0,0,0,1.58-3.68l-13.81-30.33A2.71,2.71,0,0,0,259.58,371.66Z" style="fill:#e0e0e0"></path><path d="M264.43,409.47a29.18,29.18,0,0,1-2.58-4.15c-1.48-2.63-3.45-6.3-5.4-10.47S253,386.8,252,384c-.5-1.42-.88-2.58-1.12-3.39a4.61,4.61,0,0,1-.29-1.28,38.39,38.39,0,0,1,1.9,4.48c1.13,2.79,2.74,6.62,4.68,10.77s3.83,7.86,5.2,10.54A36.77,36.77,0,0,1,264.43,409.47Z" style="fill:#263238"></path><path d="M253,383.28c-.16-.09,1.92-2.8,5.73-4.29s7.17-1,7.1-.81-3.23,0-6.83,1.5S253.15,383.45,253,383.28Z" style="fill:#263238"></path><path d="M256.54,394.38c-.1-.17,2.79-2,6.58-3.82s7-3,7.09-2.77-3,1.62-6.77,3.44S256.64,394.57,256.54,394.38Z" style="fill:#263238"></path><path d="M263,405.27c0-.23,3.31-.58,6.57-2.93s4.75-5.34,5-5.22a4.63,4.63,0,0,1-.88,2A13.47,13.47,0,0,1,270,403a13.66,13.66,0,0,1-4.82,2.16A4.68,4.68,0,0,1,263,405.27Z" style="fill:#263238"></path><path d="M210.49,407.06c0-.12,1.11-.36,2.79-1.12a16.15,16.15,0,0,0,9.05-10.42c.51-1.76.59-2.92.71-2.91a7.1,7.1,0,0,1-.2,3,14.93,14.93,0,0,1-9.37,10.78A7.07,7.07,0,0,1,210.49,407.06Z" style="fill:#263238"></path><path d="M214,444.87a4.63,4.63,0,0,1,2.13-.79,9.63,9.63,0,0,1,5.45.55,13.3,13.3,0,0,1,4.5,3.13c1,1,1.43,1.74,1.36,1.8s-.7-.53-1.72-1.42a16.55,16.55,0,0,0-4.41-2.83,10.8,10.8,0,0,0-5.11-.71A13.17,13.17,0,0,1,214,444.87Z" style="fill:#263238"></path><path d="M185.92,329.58s-30.94-5-40.91-3.31S116,339,117.12,356.83s12.46,31,26.78,33.76S238.34,404.35,269.51,405c26.38.58,40.93-5.59,38.08-9.8,0,0,28.13-9.58,31.07-10.72,2.27-.88,40.7-17,48.33-26.91,5.22-6.81,15.55-32.12-1.77-45.35s-48-5.75-53.56-1.9c-2.72,1.9-7.49,3.11-17.25,9.72l-8.85-6.57c-.66.46-73.92,3-102.89,3.28C197.76,316.83,185.92,329.58,185.92,329.58Z" style="fill:#263238"></path><path d="M271.61,376.11c-.69-3.47-1-4.74,0-6.94a20,20,0,0,1,4.35-5.69c1.12-1.16,2.44-2.4,4.06-2.36,2,0,3.39,2.05,4.41,3.81q5.6,9.74,12,19c2.44,3.54,5.06,7.1,8.7,9.39,1.34.84,3,1.86,2.88,3.43-.11,1.24-1.32,2-2.43,2.62a49.07,49.07,0,0,1-6.47,2.75,12.5,12.5,0,0,1-6.7.83,12.63,12.63,0,0,1-5.39-3.2c-7.4-6.58-13.09-14.79-15.58-24.37" style="fill:#263238"></path><path d="M271.4,375.35a1.21,1.21,0,0,1,.11.29c.08.23.17.51.28.85.23.76.59,1.86,1.14,3.25a47.66,47.66,0,0,0,6.15,11,55.56,55.56,0,0,0,5.74,6.57c1.13,1.09,2.32,2.21,3.61,3.24a9.74,9.74,0,0,0,4.5,2.16,11.92,11.92,0,0,0,5.23-.66,48.54,48.54,0,0,0,5.25-2c.86-.41,1.76-.83,2.58-1.3a3,3,0,0,0,1.66-2,2.6,2.6,0,0,0-1.28-2.23c-.76-.59-1.68-1.08-2.51-1.71-3.37-2.48-5.72-5.85-7.91-9s-4.24-6.3-6.13-9.31-3.62-5.9-5.19-8.64a13.56,13.56,0,0,0-2.59-3.63,3.35,3.35,0,0,0-1.79-.85,3.15,3.15,0,0,0-1.86.36,12.39,12.39,0,0,0-2.85,2.42,26.77,26.77,0,0,0-2.26,2.53,9.17,9.17,0,0,0-2.18,4.83,16.21,16.21,0,0,0,.33,3.41l.15.88a1.22,1.22,0,0,1,0,.31s-.05-.1-.09-.29-.13-.52-.21-.88a14.7,14.7,0,0,1-.45-3.44,9.37,9.37,0,0,1,2.14-5,32,32,0,0,1,2.25-2.59,12.45,12.45,0,0,1,2.94-2.53,3.62,3.62,0,0,1,2.11-.44,3.88,3.88,0,0,1,2.05.95,14,14,0,0,1,2.72,3.74c1.59,2.72,3.34,5.6,5.23,8.59s3.95,6.09,6.14,9.26,4.52,6.46,7.78,8.87c.8.6,1.7,1.07,2.53,1.72a4.72,4.72,0,0,1,1.11,1.16,2.42,2.42,0,0,1,.4,1.62,3.53,3.53,0,0,1-2,2.44c-.88.51-1.75.91-2.64,1.32a44.65,44.65,0,0,1-5.33,2.06,12.43,12.43,0,0,1-5.49.66A10.36,10.36,0,0,1,288.1,401a49,49,0,0,1-3.63-3.31,53.64,53.64,0,0,1-5.74-6.68,45.56,45.56,0,0,1-6-11.19,31.86,31.86,0,0,1-1-3.3l-.22-.88A1.31,1.31,0,0,1,271.4,375.35Z" style="fill:#455a64"></path><path d="M348.23,314a5.89,5.89,0,0,0-.84,0,21.36,21.36,0,0,0-2.37.48c-2,.51-5,1.39-8.57,2.53-1.78.56-3.82,1.19-5.9,1.77-2,.81-3.68,2.56-5.56,4.19-3.72,3.33-7.79,7-12,10.93-8.47,7.82-15.92,15.13-21.16,20.57-2.62,2.72-4.7,4.95-6.15,6.5L284,362.79a4.74,4.74,0,0,1-.61.6,3.54,3.54,0,0,1,.52-.68l1.57-1.86c1.38-1.6,3.42-3.88,6-6.64,5.16-5.52,12.58-12.89,21.05-20.72,4.23-3.92,8.32-7.59,12.07-10.9,1.87-1.61,3.57-3.39,5.74-4.25,2.21-.59,4.13-1.16,6-1.71,3.62-1.08,6.58-1.9,8.65-2.34a15.43,15.43,0,0,1,2.42-.37,2,2,0,0,1,.63,0Q348.25,314,348.23,314Z" style="fill:#455a64"></path><path d="M238.25,368.3a5.49,5.49,0,0,1-.79-.38l-2.23-1.2-8.13-4.5-12-6.75c-4.53-2.52-9.42-5.5-15-7.66a43.14,43.14,0,0,0-8.38-2.28,13.12,13.12,0,0,1-4-1.39,10.9,10.9,0,0,1-2.93-2.8,11.76,11.76,0,0,0-5.89-4,22.33,22.33,0,0,0-6.26-.92c-3.9,0-7.08.33-9.28.25a25.09,25.09,0,0,1-2.53-.16,3.83,3.83,0,0,1-.87-.15,6.47,6.47,0,0,1,.88,0c.57,0,1.42.06,2.52,0,2.19,0,5.34-.4,9.29-.44a21.9,21.9,0,0,1,6.4.87,13.78,13.78,0,0,1,3.32,1.49,11.84,11.84,0,0,1,2.85,2.59,10.3,10.3,0,0,0,2.8,2.67,12.83,12.83,0,0,0,3.83,1.3,43,43,0,0,1,8.47,2.29c5.62,2.2,10.52,5.21,15,7.75l11.95,6.86,8,4.67,2.17,1.3A3.78,3.78,0,0,1,238.25,368.3Z" style="fill:#455a64"></path><polygon points="251.95 408.39 230.82 403.3 239.56 369.51 262.33 376.64 251.95 408.39" style="fill:#ffbf9d"></polygon><path d="M259.56,376.91l33,11.31,10.37-.47a5.87,5.87,0,0,1,6.12,5.6l2.71,60.14s-7.1,1.37-9.09-2.79-19.72-33.9-19.72-33.9l-31.06-8.46Z" style="fill:#e0e0e0"></path><path d="M259.56,376.91l-.12.57c-.09.4-.22.94-.38,1.64-.34,1.46-.84,3.56-1.48,6.26-1.29,5.43-3.17,13.27-5.5,23l-.15-.25,31.08,8.4.11,0,.06.1,12,20.28c2.09,3.57,4.23,7.23,6.34,11,.53.93,1,1.92,1.54,2.85a4.58,4.58,0,0,0,2.29,2,12.14,12.14,0,0,0,6.34.45l-.25.32c0-.11,0-.24,0-.36-.69-15.44-1.34-30.16-1.94-43.59-.15-3.35-.29-6.63-.43-9.81q-.1-2.39-.21-4.71c0-.76,0-1.56-.13-2.26a5.36,5.36,0,0,0-.72-2,5.66,5.66,0,0,0-3.27-2.52,14.08,14.08,0,0,0-4.16-.12l-8,.34h-.08l-24-8.37-6.57-2.31-1.72-.61-.59-.23.56.17,1.7.56,6.55,2.19L292.62,388h-.08l8-.38,2.11-.1a6.66,6.66,0,0,1,2.21.22,6.13,6.13,0,0,1,4.37,4.95c.1.8.09,1.54.14,2.32.07,1.55.15,3.11.22,4.71q.22,4.77.46,9.81c.61,13.42,1.28,28.14,2,43.58,0,.13,0,.25,0,.36v.28l-.26,0a12.82,12.82,0,0,1-6.7-.49,5.14,5.14,0,0,1-2.58-2.22c-.53-1-1-1.91-1.54-2.86-2.11-3.75-4.24-7.4-6.32-11-4.2-7.13-8.22-13.93-12-20.3l.17.13-31.05-8.52-.2-.05,0-.21c2.44-9.77,4.4-17.64,5.76-23.09.68-2.67,1.2-4.75,1.57-6.18.17-.68.31-1.21.41-1.59A5.4,5.4,0,0,1,259.56,376.91Z" style="fill:#263238"></path><path d="M257.15,372l9.36,3.83a2.74,2.74,0,0,1,1.58,3.31l-9,30.48a2.73,2.73,0,0,1-3.12,1.91l-8.76-1.63a2.73,2.73,0,0,1-2.12-3.44l9.54-33.24A1.88,1.88,0,0,1,257.15,372Z" style="fill:#e0e0e0"></path><path d="M257.15,372a2.59,2.59,0,0,0-1-.06,1.89,1.89,0,0,0-1,.58,3.5,3.5,0,0,0-.61,1.52l-2.89,10.44c-1.25,4.42-2.73,9.65-4.38,15.46L246,404.43c-.21.75-.43,1.52-.64,2.29a2.39,2.39,0,0,0,.49,2,2.34,2.34,0,0,0,.86.67,4.44,4.44,0,0,0,1.13.29l2.49.46,5.08.95a5.12,5.12,0,0,0,1.22.16,2.36,2.36,0,0,0,1.09-.34,2.45,2.45,0,0,0,.82-.78,4.27,4.27,0,0,0,.42-1.11q.72-2.44,1.43-4.82c.94-3.15,1.84-6.19,2.7-9.09,1.74-5.79,3.3-11,4.62-15.4a4.1,4.1,0,0,0,.3-1.56,2.56,2.56,0,0,0-.51-1.35c-.57-.8-1.59-1-2.4-1.39l-4.3-1.81-2.7-1.17a6.68,6.68,0,0,1-.93-.45,5.62,5.62,0,0,1,1,.33l2.74,1.07,4.34,1.72,1.3.52a2.93,2.93,0,0,1,1.89,2.5,4.48,4.48,0,0,1-.3,1.72c-1.28,4.41-2.8,9.63-4.48,15.43-.85,2.9-1.75,5.95-2.67,9.11-.47,1.57-.94,3.18-1.42,4.81a4.71,4.71,0,0,1-.5,1.27,3.07,3.07,0,0,1-2.39,1.4,3.48,3.48,0,0,1-.72,0l-.64-.12-5.08-.95-2.49-.47a5.08,5.08,0,0,1-1.28-.34,3,3,0,0,1-1.07-.84,3.05,3.05,0,0,1-.61-2.55c.22-.82.45-1.56.67-2.33l1.29-4.46c1.69-5.79,3.21-11,4.5-15.42s2.34-7.88,3.08-10.39a3.59,3.59,0,0,1,.71-1.58,2,2,0,0,1,1.14-.57,1.7,1.7,0,0,1,.77.07C257.08,372,257.16,372,257.15,372Z" style="fill:#263238"></path><path d="M266.33,383c.15-.11-2.33-2.51-6.35-3.43s-7.3.08-7.22.24,3.24-.44,7.05.48S266.2,383.19,266.33,383Z" style="fill:#263238"></path><path d="M263.56,394.47c.07-.18-2.9-1.52-6.71-2.74s-7-1.86-7-1.68,3,1.13,6.83,2.36S263.49,394.66,263.56,394.47Z" style="fill:#263238"></path><path d="M259.59,406.44c0-.24-3.4-.09-7-1.95s-5.53-4.63-5.71-4.48a4.73,4.73,0,0,0,1.17,1.87,13.82,13.82,0,0,0,9.34,4.72A4.83,4.83,0,0,0,259.59,406.44Z" style="fill:#263238"></path><path d="M309,400.19c0-.11-1.1-.18-2.79-.66a15.53,15.53,0,0,1-10.05-8.6c-.73-1.6-1-2.69-1.09-2.66a6.88,6.88,0,0,0,.63,2.85A14.31,14.31,0,0,0,306.1,400,6.72,6.72,0,0,0,309,400.19Z" style="fill:#263238"></path><path d="M311,436.52a4.71,4.71,0,0,0-2.13-.44,9.25,9.25,0,0,0-5.09,1.28A12.86,12.86,0,0,0,300,441a5.37,5.37,0,0,0-1,1.9c.1.06.59-.6,1.44-1.59a15.58,15.58,0,0,1,3.78-3.3,10.32,10.32,0,0,1,4.73-1.39A11.49,11.49,0,0,0,311,436.52Z" style="fill:#263238"></path><path d="M238.37,407.15c6.4-7.77,9.24-17.95,10-28,.18-2.23.24-4.59-.75-6.6a11.8,11.8,0,0,0-3.67-3.94,41.25,41.25,0,0,0-7.09-4.28,2.69,2.69,0,0,0-2.32-.31c-.84.43-1,1.54-1.08,2.49a94.5,94.5,0,0,1-9.57,34.63,3.34,3.34,0,0,0,2.42,4.8c2,.32,4.14.68,5.75,1A21.08,21.08,0,0,0,238.37,407.15Z" style="fill:#263238"></path><path d="M238.37,407.15a1,1,0,0,1-.28.06c-.19,0-.47.07-.83.1a20.25,20.25,0,0,1-3.23,0c-1.41-.11-3.09-.43-5.05-.73-1-.17-2-.28-3.16-.54a3.55,3.55,0,0,1-2.22-4.69c.28-.64.57-1.21.86-1.83.57-1.23,1.15-2.52,1.71-3.88,1.12-2.7,2.2-5.65,3.16-8.79a97.57,97.57,0,0,0,3.94-21,3.47,3.47,0,0,1,.52-1.47,1.83,1.83,0,0,1,1.45-.76,6.82,6.82,0,0,1,2.76,1,41.28,41.28,0,0,1,4.75,2.82,20.9,20.9,0,0,1,4.09,3.45,8.1,8.1,0,0,1,1.9,4.79,26,26,0,0,1-.18,4.87c-.15,1.57-.36,3.08-.6,4.53a58.32,58.32,0,0,1-1.91,8,43,43,0,0,1-5,10.72,28.06,28.06,0,0,1-1.92,2.61l-.54.64a2,2,0,0,1-.19.2,1,1,0,0,1,.16-.26l.49-.67c.43-.58,1-1.47,1.79-2.65a44.47,44.47,0,0,0,4.82-10.72,59.8,59.8,0,0,0,1.83-7.92c.22-1.45.42-2.95.56-4.5a26.07,26.07,0,0,0,.16-4.77,7.56,7.56,0,0,0-1.79-4.46,20.11,20.11,0,0,0-4-3.33,41.53,41.53,0,0,0-4.68-2.78,6.26,6.26,0,0,0-2.46-.9c-.83,0-1.28.8-1.38,1.7a96.23,96.23,0,0,1-4,21.11c-1,3.17-2.09,6.12-3.24,8.83-.57,1.36-1.16,2.65-1.75,3.88-.29.61-.62,1.23-.86,1.8a3,3,0,0,0-.18,1.75,3.11,3.11,0,0,0,2.09,2.39c1,.26,2.14.4,3.1.58,2,.34,3.63.69,5,.83a25,25,0,0,0,3.2.13l.83,0Z" style="fill:#455a64"></path><path d="M236.52,363.13c-.15.07-1.09-1.81-3-4.62a51.71,51.71,0,0,0-19.39-17.4c-3-1.55-5-2.28-4.92-2.43a4.73,4.73,0,0,1,1.44.35,32.65,32.65,0,0,1,3.77,1.49,45.5,45.5,0,0,1,19.66,17.63,30.92,30.92,0,0,1,1.88,3.59A5,5,0,0,1,236.52,363.13Z" style="fill:#455a64"></path><path d="M294.44,338.36a30.46,30.46,0,0,1-3.2,3.5c-2,2.13-4.7,5.14-7.42,8.66s-4.95,6.9-6.5,9.38a30.54,30.54,0,0,1-2.58,4,19.39,19.39,0,0,1,2-4.32,75.84,75.84,0,0,1,14-18.17A19.8,19.8,0,0,1,294.44,338.36Z" style="fill:#455a64"></path><g style="opacity:0.2"><path d="M155.52,392.49s2.07-20.57,4.45-21.85,8.78-5.68,11.89-9.52a37.59,37.59,0,0,0,4.76-7.62s-5.49-7.9-5.31-9.84,1.83-6.52.55-8.53-8.29-8.43-8.29-8.43-29.23-2.74-34.9,7.15-6.23,36.94-6.23,36.94l24.22,20.29Z"></path></g><path d="M304.29,247l32.57-9s-14.56-43.56-22.95-50.85-37.53-9.72-37.53-9.72-.9,17-18.4,17.66c-20.24.76-21.36-17.3-21.36-17.3l-26.2,7.94-.08,67.56-1.1,41.23-17.18,29s41.91,11.77,64.25,12.87S312.07,316,312.07,316L300.41,292Z" style="fill:#FFC100"></path><path d="M306.78,207.78c.65-.08.34,9.11-.42,20.29-.38,5.61-.79,10.68-1.13,14.34-.17,1.75-.32,3.2-.43,4.34a8,8,0,0,1-.25,1.58,8.2,8.2,0,0,1,0-1.6c.07-1.14.15-2.6.24-4.35.25-3.78.58-8.8.94-14.35s.68-10.55.93-14.34S306.92,207.74,306.78,207.78Z" style="fill:#263238"></path><path d="M280.26,290.36a14.64,14.64,0,0,1-1.88.86c-.61.27-1.37.58-2.26.89s-1.9.72-3.05,1.07c-2.27.75-5,1.5-8.13,2.19A91.63,91.63,0,0,1,254.72,297a93.21,93.21,0,0,1-10.36.34c-3.18-.1-6-.33-8.43-.65-1.19-.12-2.26-.33-3.2-.48s-1.75-.31-2.41-.45a14.87,14.87,0,0,1-2-.5,14.3,14.3,0,0,1,2.07.27c.66.11,1.47.24,2.41.36s2,.29,3.21.39c2.38.26,5.22.45,8.39.52s6.64-.06,10.27-.39a100.9,100.9,0,0,0,10.16-1.52c3.09-.65,5.84-1.36,8.12-2.06,1.15-.32,2.16-.69,3.06-1s1.67-.56,2.3-.79A12.39,12.39,0,0,1,280.26,290.36Z" style="fill:#263238"></path><path d="M275.85,235.28a1.43,1.43,0,0,1,0,.49c0,.38-.08.84-.13,1.39a18.72,18.72,0,0,1-.31,2.19c-.16.85-.3,1.82-.6,2.87q-.19.79-.42,1.65c-.15.58-.36,1.16-.55,1.77-.37,1.22-.9,2.48-1.44,3.82a51.52,51.52,0,0,1-4.49,8.19,52.27,52.27,0,0,1-6,7.16c-1,1-2,1.94-3,2.72-.5.4-1,.81-1.44,1.16l-1.39,1c-.87.65-1.73,1.13-2.46,1.59a19,19,0,0,1-1.92,1.09l-1.25.62a1.72,1.72,0,0,1-.45.19s.13-.11.4-.28l1.2-.71c.52-.29,1.16-.67,1.87-1.15s1.55-1,2.39-1.65l1.36-1c.47-.36.92-.77,1.41-1.18,1-.79,1.95-1.75,3-2.73A49.64,49.64,0,0,0,272,249.27c.54-1.32,1.09-2.56,1.47-3.77.19-.6.42-1.17.58-1.74s.3-1.11.45-1.63c.31-1,.48-2,.66-2.83s.32-1.57.4-2.16.17-1,.23-1.38A2.08,2.08,0,0,1,275.85,235.28Z" style="fill:#263238"></path><g style="opacity:0.2"><path d="M234.26,296.45c4.55,3.29,10.08,4,15.69,4.14a85.15,85.15,0,0,0,16.87-1.23c4.47-.8,9.13-2,13-4.37,3.58-2.17,4.91-4,7.61-7.64-19.87,9-34,10.28-53.17,9.1"></path></g><g style="opacity:0.2"><path d="M255.36,198.19c-3.05,5-5.19,10.43-7.43,15.81-11,26.35-19.54,51.91-35.73,75.41l-5.26,8.94c6.55,1.76,13.29-2.43,17.38-7.85s6-12.1,8.22-18.5c10.2-29.28,28.83-55.56,35.12-85.92C262.46,188.71,258.41,193.22,255.36,198.19Z"></path></g><path d="M313.51,197.86l27.76,55.6s-21.83,21.69-22.65,22.69S307.77,267,307.77,267L297,206Z" style="fill:#ffbf9d"></path><path d="M312.74,162.07s2.34.89,1.92,2.46-1.31,10.72-.53,13.93.32,8.75.32,11.7-.37,9-.37,9l-17.07,8S290.35,192,290,186c-.42-8.05-5.91-14.09-7.22-17-.43-1-1.22-1.83-1.09-3.16.25-2.49,2.48-2.79,4.41-1.11l3.48,3.47a68,68,0,0,0-3.95-9c-1.57-2.93-2.93-4.86-3.12-5.86a5.21,5.21,0,0,1,0-2.2,2.05,2.05,0,0,1,3.2-1.14l.59.42s-2.51-3.72-.79-6.25a2,2,0,0,1,3.15-.15l2.22,2.63h0a6.74,6.74,0,0,1,5.83,2.41l6.58,7.91,5.45,9.09S310,162.41,312.74,162.07Z" style="fill:#ffbf9d"></path><path d="M314.08,199.11s0-.24,0-.69,0-1.16.05-2c0-1.78.17-4.37.22-7.7a48.49,48.49,0,0,0-.64-11.95,52.1,52.1,0,0,1,.15-7.44c.1-1.3.23-2.64.44-4,0-.32.14-.73.18-1a1.18,1.18,0,0,0-.23-.84,3.58,3.58,0,0,0-1.59-1.17l.11,0a3.82,3.82,0,0,0-2.3,1.33,8.05,8.05,0,0,0-1.44,2.54l-.17.46-.25-.42-5.46-9.09,0,0q-2-2.43-4.15-5l-2.14-2.57a6.83,6.83,0,0,0-2.52-2.07,6.5,6.5,0,0,0-3.23-.6H291l-.23-.09,0,0-.14-.17-.28-.33-.57-.67-1.13-1.35a1.74,1.74,0,0,0-2.7-.07,3.28,3.28,0,0,0-.62,1.51,5.15,5.15,0,0,0,.09,1.7,9.22,9.22,0,0,0,1.21,2.87l.7,1.11-1.06-.75-.63-.44a1.86,1.86,0,0,0-.61-.27,1.89,1.89,0,0,0-1.3.17,1.65,1.65,0,0,0-.81,1,4.74,4.74,0,0,0-.17,1.41,3.41,3.41,0,0,0,.28,1.36c.2.44.44.88.68,1.31l1.48,2.56a65.76,65.76,0,0,1,4.7,10.38l.37,1-.77-.78-2.12-2.11a11.84,11.84,0,0,0-2.14-1.91,2.22,2.22,0,0,0-2.45-.11,2.56,2.56,0,0,0-.76,2.33c1.23,3.39,3.59,6.18,5.12,9.18a24.72,24.72,0,0,1,3,8.94,31.37,31.37,0,0,0,1.55,7.87c1.44,4.67,2.88,8.29,3.85,10.77.49,1.21.87,2.16,1.13,2.83l.29.73a1,1,0,0,1,.09.25s-.05-.07-.13-.23l-.32-.72c-.29-.63-.7-1.57-1.21-2.8-1-2.46-2.51-6.06-4-10.74a32.07,32.07,0,0,1-1.62-7.92,24.76,24.76,0,0,0-3-8.79c-.8-1.46-1.72-2.91-2.68-4.4a22,22,0,0,1-1.38-2.33,10.53,10.53,0,0,1-1.15-2.56,3.41,3.41,0,0,1,.1-1.49,2.42,2.42,0,0,1,.82-1.3,2.16,2.16,0,0,1,1.51-.41,3.59,3.59,0,0,1,1.47.48,12.91,12.91,0,0,1,2.24,2l2.12,2.11-.4.26A65.74,65.74,0,0,0,284.69,158l-1.48-2.56c-.24-.44-.49-.87-.7-1.35a4,4,0,0,1-.33-1.56,5.34,5.34,0,0,1,.19-1.58,2.15,2.15,0,0,1,1.07-1.29,2.34,2.34,0,0,1,1.66-.23,2.55,2.55,0,0,1,.79.35l.63.45-.37.36a9.68,9.68,0,0,1-1.29-3.07,5.63,5.63,0,0,1-.1-1.88,3.93,3.93,0,0,1,.73-1.77,2.23,2.23,0,0,1,1.78-.79A2.27,2.27,0,0,1,289,144l1.14,1.34.56.67.28.34.14.16,0,0-.22-.09h.16a6.94,6.94,0,0,1,3.49.65,7.19,7.19,0,0,1,2.69,2.21l2.14,2.57c1.4,1.7,2.79,3.36,4.13,5l0,0h0c1.88,3.16,3.7,6.21,5.44,9.11l-.42,0a8.37,8.37,0,0,1,1.55-2.69,4.22,4.22,0,0,1,2.57-1.47h.06l.05,0a4,4,0,0,1,1.79,1.34,1.67,1.67,0,0,1,.3,1.13c-.07.34-.13.69-.2,1-.21,1.34-.34,2.68-.45,4a51.6,51.6,0,0,0-.19,7.38,12.91,12.91,0,0,0,.22,1.67c.12.56.22,1.11.28,1.65a31.35,31.35,0,0,1,.16,3.15c0,2-.07,3.85-.13,5.51-.09,3.32-.26,5.93-.34,7.71-.05.86-.09,1.54-.11,2S314.08,199.11,314.08,199.11Z" style="fill:#ff9a6c"></path><path d="M289.39,144.88s.26.22.67.68,1,1.14,1.67,2c1.37,1.7,3.25,4.08,5.12,6.87a73.59,73.59,0,0,1,4.31,7.41c.5,1,.89,1.78,1.14,2.34a2.9,2.9,0,0,1,.34.89,29.28,29.28,0,0,1-1.8-3.06c-1.08-1.9-2.58-4.52-4.43-7.29s-3.67-5.17-5-6.93A26.85,26.85,0,0,1,289.39,144.88Z" style="fill:#ff9a6c"></path><path d="M293.92,177.05c-.15,0-.93-2.15-2.25-4.7s-2.63-4.48-2.5-4.57a20.62,20.62,0,0,1,4.75,9.27Z" style="fill:#ff9a6c"></path><path d="M297.61,169.12a24,24,0,0,1-1.62-2.83c-1-1.76-2.31-4.18-3.9-6.8s-3.11-4.94-4.23-6.6a24.86,24.86,0,0,1-1.76-2.74,17.26,17.26,0,0,1,2.06,2.52c1.2,1.62,2.78,3.92,4.38,6.55s2.9,5.09,3.78,6.9A17.5,17.5,0,0,1,297.61,169.12Z" style="fill:#ff9a6c"></path><path d="M312,176.6c-.15,0-.62-2.5-1.58-5.51s-2-5.34-1.89-5.41a18.28,18.28,0,0,1,2.39,5.26A17.72,17.72,0,0,1,312,176.6Z" style="fill:#ff9a6c"></path><path d="M303.23,259.33s8.79,17,17,20.41c6.69,2.81,10.08,2.08,14.44.38s14.23-18.75,2.15-42.09l-32.07,4.35Z" style="fill:#ffbf9d"></path><path d="M341,263c-.08,0-.26-1.48-.69-3.86a66.48,66.48,0,0,0-5.95-17.87c-1.08-2.17-1.83-3.47-1.76-3.51a4.19,4.19,0,0,1,.62.86c.38.57.88,1.41,1.47,2.48a54.38,54.38,0,0,1,6,18c.17,1.2.28,2.18.31,2.86A3.75,3.75,0,0,1,341,263Z" style="fill:#ff9a6c"></path><path d="M318.54,274.18a5.82,5.82,0,0,1-1-.7,27.37,27.37,0,0,1-2.39-2.15A38.74,38.74,0,0,1,304.91,253a29.84,29.84,0,0,1-.58-3.17,5.78,5.78,0,0,1-.09-1.18c.1,0,.33,1.65,1,4.26a42.66,42.66,0,0,0,10.18,18.2C317.3,273,318.6,274.1,318.54,274.18Z" style="fill:#ff9a6c"></path><path d="M240.28,190.58l-28,52.81,2.52-15.86L184.62,237s-3.63,39.9,3.4,49.15c11,14.5,28.53,11,38.79-10,5.8-11.87,31.17-74.62,31.17-74.62Z" style="fill:#ffbf9d"></path><path d="M200.54,268.2a4.49,4.49,0,0,1,.09-1.12c.09-.73.27-1.76.56-3a47,47,0,0,1,8.61-18.27c.8-1,1.48-1.83,2-2.35s.78-.82.81-.79-1,1.27-2.5,3.36a54.31,54.31,0,0,0-8.55,18.13C200.89,266.63,200.62,268.22,200.54,268.2Z" style="fill:#ff9a6c"></path><path d="M279.84,158.28c-2,2.71-5.48,7.05-5.48,7.05l-4.71,6.46,6.78-5.21c1.5-1.36,4.07-.11,3.65,1.87a2.17,2.17,0,0,1-.38.87c-1.4,1.93-13.44,18-14.87,20.45s-3.76,12-8.66,15.1l-16.81-13.76s1.58-12.77,2.56-17.37,7.65-15.44,7.29-19.69c0,0,4.94-1.12,4.91,6.29l-.3,4,6.07-8.41s6.9-8.62,9.27-9.36,4.84.79,4.84.79,2.21-2.49,4.44-1.44c2.07,1,.35,3.55-.3,5s-2.87,5-2.87,5l2.43-2.19a2.05,2.05,0,0,1,3.44,1.63A6,6,0,0,1,279.84,158.28Z" style="fill:#ffbf9d"></path><path d="M257.87,168.14a4.79,4.79,0,0,1,.44-1c.31-.62.81-1.49,1.47-2.55a64.72,64.72,0,0,1,5.77-7.81c2.44-2.9,4.75-5.44,6.39-7.3l1.95-2.19a4.14,4.14,0,0,1,.76-.77,4.37,4.37,0,0,1-.61.9c-.41.55-1,1.34-1.82,2.3-1.57,1.93-3.84,4.5-6.27,7.39a89.13,89.13,0,0,0-5.87,7.68C258.71,166.85,258,168.18,257.87,168.14Z" style="fill:#ff9a6c"></path><path d="M259.33,156.67a17.52,17.52,0,0,1-1.72,2.58l-4.42,6c-1.71,2.35-3.21,4.51-4.21,6.12s-1.57,2.65-1.64,2.62a11.71,11.71,0,0,1,1.32-2.81,65.78,65.78,0,0,1,4.11-6.24c1.72-2.36,3.35-4.43,4.55-5.92A19.52,19.52,0,0,1,259.33,156.67Z" style="fill:#ff9a6c"></path><path d="M275.27,155.89a16.1,16.1,0,0,1-1.65,2.16c-1,1.3-2.48,3.1-4,5.12s-2.91,3.89-3.88,5.24a17,17,0,0,1-1.64,2.16,11.61,11.61,0,0,1,1.34-2.36c.9-1.42,2.21-3.32,3.76-5.35s3-3.81,4.16-5.05A12.76,12.76,0,0,1,275.27,155.89Z" style="fill:#ff9a6c"></path><path d="M256.17,204.87l.18-.16.53-.41a13,13,0,0,0,1.81-1.92,35.65,35.65,0,0,0,4.45-8.93c.39-1,.78-2.08,1.27-3.18a26.38,26.38,0,0,1,2-3.17c1.49-2.13,3.14-4.4,4.91-6.82l5.66-7.69,1.52-2.05.77-1a2.63,2.63,0,0,0,.56-1.07,1.75,1.75,0,0,0-1-2,2,2,0,0,0-2.29.28h0L269.8,172l-1.34,1,1-1.37,3.94-5.42c1.34-1.85,2.82-3.66,4.26-5.54.72-.94,1.47-1.88,2.18-2.83a6.48,6.48,0,0,0,.81-1.54,2.84,2.84,0,0,0,.18-1.63,1.83,1.83,0,0,0-2.62-1,3.57,3.57,0,0,0-.68.55l-.69.62-1.4,1.26-1.32,1.19.93-1.52c.89-1.46,1.86-3,2.7-4.66.37-.85.85-1.67,1.16-2.51s.43-1.77-.23-2.25a2.5,2.5,0,0,0-2.36-.28,5.57,5.57,0,0,0-2.12,1.43l-.15.15-.18-.1a7.18,7.18,0,0,0-3.48-.94,3.25,3.25,0,0,0-1.67.43,10.57,10.57,0,0,0-1.44,1.1,57.6,57.6,0,0,0-5,5.28c-.78.9-1.55,1.81-2.27,2.72s-1.37,1.89-2,2.83l-4,5.48-.46.64,0-.8c.12-2.32.57-4.61,0-6.7a4.71,4.71,0,0,0-1.53-2.65,3.58,3.58,0,0,0-2.8-.67l.16-.23a12.27,12.27,0,0,1-.86,4.28c-.48,1.32-1,2.59-1.54,3.81-1.08,2.43-2.19,4.7-3.15,6.85-2.16,4.24-2.39,8.41-3,11.72s-.86,5.91-1.12,7.71c-.12.87-.22,1.54-.29,2s-.12.69-.12.69,0-.23.06-.69.13-1.16.23-2c.21-1.78.53-4.39,1-7.73.23-1.67.5-3.52.85-5.53a23.7,23.7,0,0,1,2.06-6.29l3.1-6.87c.54-1.21,1.05-2.48,1.52-3.79a12,12,0,0,0,.82-4.1v-.2l.17,0a4,4,0,0,1,3.17.75,5.17,5.17,0,0,1,1.7,2.88,11.34,11.34,0,0,1,.28,3.39c-.08,1.14-.17,2.29-.25,3.46l-.43-.16,4-5.49,2-2.84c.74-.93,1.5-1.84,2.28-2.75a59.83,59.83,0,0,1,5-5.33,10.24,10.24,0,0,1,1.51-1.16,3.86,3.86,0,0,1,1.92-.51,7.65,7.65,0,0,1,3.75,1l-.32.05a6,6,0,0,1,2.34-1.58,3,3,0,0,1,2.86.36,1.78,1.78,0,0,1,.67,1.4,3.85,3.85,0,0,1-.28,1.44c-.34.91-.81,1.7-1.19,2.56-.86,1.67-1.82,3.23-2.72,4.7l-.39-.33,1.39-1.25.69-.63a5,5,0,0,1,.77-.61,2.35,2.35,0,0,1,3.38,1.33,3.41,3.41,0,0,1-.19,1.94,7.13,7.13,0,0,1-.88,1.66c-.73,1-1.47,1.9-2.2,2.85-1.44,1.88-2.92,3.68-4.26,5.53l-3.95,5.41-.35-.34,6.79-5.19h0a2.48,2.48,0,0,1,2.8-.35,2.3,2.3,0,0,1,1,1,2.11,2.11,0,0,1,.17,1.44,2.9,2.9,0,0,1-.64,1.23l-.77,1c-.52.69-1,1.37-1.53,2l-5.69,7.65c-1.78,2.41-3.45,4.68-5,6.79a26.54,26.54,0,0,0-2,3.11c-.49,1.07-.88,2.14-1.28,3.14a34.64,34.64,0,0,1-4.6,8.93,11.27,11.27,0,0,1-1.87,1.88l-.56.39Z" style="fill:#ff9a6c"></path><path d="M211.15,185.73s-14.46,1.69-21.78,23.4A203.41,203.41,0,0,0,181,246.3l32.12-4.51L218,219.11Z" style="fill:#FFC100"></path><path d="M224.74,214.16a36.42,36.42,0,0,0,0-4.34,18.19,18.19,0,0,0-12-15.65,38.06,38.06,0,0,0-4.2-1.1,4.6,4.6,0,0,1,1.18.05,15.89,15.89,0,0,1,3.15.7,17.82,17.82,0,0,1,12.28,16A15.87,15.87,0,0,1,225,213,4.27,4.27,0,0,1,224.74,214.16Z" style="fill:#263238"></path></g><g id="freepik--Cat--inject-2"><path d="M100.84,379.14c0,.62,1.66,17.81-3.31,24l-4.76,6L95,411.65s-1.65,24,0,28.58a14.62,14.62,0,0,0,4.58,6.63l11.16-1.24s.42-5.59-2.69-6.21-2.69-2.49-2.69-2.49a41.3,41.3,0,0,1,5.4-16.57c4.75-7.66,9.1-7.87,15.72-14.91s11.81-16.15,12.43-18.22-1.24-14.5-1.24-14.5L118.45,357.4Z" style="fill:#455a64"></path><path d="M150.75,382.25c-.41.82-2.9,25.88-2.9,25.88l14.71,41.63s5.38,2.9,3.73,7.46l-7,1-6.84-6.42a5.77,5.77,0,0,0-2.28-6c-3.31-2.7-21.54-32.31-26.92-34s-3.94-3.52-3.94-3.52l10.36-37.69L151,377.27Z" style="fill:#455a64"></path><path d="M46.1,317.32c.21-10.55,4.68-18.51,6.65-25.49,2-7.16,2.71-13.47-1.6-19.29a15.26,15.26,0,0,0-21.72-3,8.06,8.06,0,0,0-3.27,4.59c-.37,1.89.61,4.13,2.46,4.64,2.49.67,4.73-1.83,7.28-2.14,3.21-.4,5.88,2.89,6.13,6.11S40.87,289,39.62,292c-5.94,14.24-9.69,34.2,2.19,49.15l13.41-5.53C50.35,330.27,46,324.41,46.1,317.32Z" style="fill:#455a64"></path><path d="M36.84,352.14S32.33,356,32.7,366.56s3.39,23.95,2.06,30-1.74,23.4-2.08,26.87,8.79,24.5,8.79,24.5l11.52.73s.91-6.95-4.2-8.41-7.32-18.1-4.76-24.5,7.13-.91,14.81-17.18,9.51-19.74,9.51-20.48S36.84,352.14,36.84,352.14Z" style="fill:#455a64"></path><path d="M55.37,400.39s-6.07,6.39-4.86,12.05,12.35,24.68,12.35,24.68l12.43-1.28s2.56-3.29-3.11-5.85l-3.83-3.47s-4-4-4-9S74.5,410,77.18,399s4.25-16.5,4.25-16.5l-23.69,5.12Z" style="fill:#455a64"></path><path d="M64.3,330.56a34.6,34.6,0,0,0-21,7.13,21.85,21.85,0,0,0-7.47,9.69c-3.91,11.27-1.77,25.85-2.13,29.05s.44,7,1.34,14.66c.66,5.63,35.45,4.53,35.45,4.53l9.78-3.91s5-2.84,11.55,2.85,11.91,8.71,15.64,8.17S129,380.87,129,380.87l-6.93-38S105.53,335,93.8,332.35C86.17,330.61,72.75,330.46,64.3,330.56Z" style="fill:#455a64"></path><path d="M98.17,373.37a7,7,0,0,1,.83,1.22,24.4,24.4,0,0,1,1.74,3.62,27.22,27.22,0,0,1-2.93,25.39,24.76,24.76,0,0,1-2.52,3.12,7.06,7.06,0,0,1-1.08,1,9.33,9.33,0,0,1,.93-1.14,29.41,29.41,0,0,0,2.36-3.19,28.08,28.08,0,0,0,2.9-25.05,31.28,31.28,0,0,0-1.58-3.65A10.22,10.22,0,0,1,98.17,373.37Z" style="fill:#263238"></path><path d="M110.8,420.35a4,4,0,0,1,.38-.77,15.89,15.89,0,0,1,1.42-2,48.34,48.34,0,0,1,6.14-6h0a36.49,36.49,0,0,0,8.85-6.12,37.69,37.69,0,0,0,9-13.06,39.51,39.51,0,0,0,1.54-4.6,10.32,10.32,0,0,1,.48-1.72,13.32,13.32,0,0,1-.28,1.77,32.52,32.52,0,0,1-1.4,4.68,36.16,36.16,0,0,1-9,13.31,35.13,35.13,0,0,1-9,6.15l0,0a57,57,0,0,0-6.23,5.85,23.06,23.06,0,0,0-1.5,1.88A4.53,4.53,0,0,1,110.8,420.35Z" style="fill:#263238"></path><path d="M72.63,364.19a3.16,3.16,0,0,1-.08.58c-.07.43-.17,1-.28,1.65-.23,1.44-.47,3.53-.62,6.13s-.2,5.7-.44,9.15a40.79,40.79,0,0,1-2.07,11.05A25.84,25.84,0,0,1,63,402.17a40.43,40.43,0,0,1-7.24,5.66,60.22,60.22,0,0,1-5.41,3c-.66.33-1.17.56-1.52.72a2.58,2.58,0,0,1-.55.21,2.76,2.76,0,0,1,.5-.31l1.47-.8c1.28-.7,3.13-1.71,5.31-3.12a41.36,41.36,0,0,0,7.1-5.69,25.92,25.92,0,0,0,6-9.25,42,42,0,0,0,2.09-10.92c.25-3.42.34-6.53.55-9.14a50.6,50.6,0,0,1,.78-6.13c.14-.72.27-1.27.38-1.64A2,2,0,0,1,72.63,364.19Z" style="fill:#263238"></path><path d="M91,393.89A17.47,17.47,0,0,0,87.53,392a10.89,10.89,0,0,0-4.18-.56,13.56,13.56,0,0,0-5,1.31c-3.46,1.49-6.59,2.84-8.82,3.88l-2.64,1.25a5,5,0,0,1-1,.42,3.94,3.94,0,0,1,.89-.6c.6-.36,1.48-.84,2.58-1.4,2.2-1.13,5.31-2.54,8.77-4a13.75,13.75,0,0,1,5.2-1.31,10.73,10.73,0,0,1,4.33.7,9.79,9.79,0,0,1,2.57,1.45C90.78,393.58,91,393.86,91,393.89Z" style="fill:#263238"></path><path d="M154.93,330.9c.08.33,10.41,9,11.34,11.92a8.64,8.64,0,0,1,0,4.39l3.06,6.37s-2.23,6-5.71,7.53a25,25,0,0,1-7.28,1.82c-.25,0-2.9,4.56-4.39,11.34A105.19,105.19,0,0,0,150,387.73l-26.39-21.06s-4.27-16.15-3.94-19.88,6.87-9.27,7-9.6,5-4.47,5-4.47l6.71-4.05s5.38-8.28,12-9.44,4.72,5,4.72,5Z" style="fill:#455a64"></path><path d="M153.1,344.94c0-.05.34-.39,1.1-.62a4.48,4.48,0,0,1,5.27,2.34c.34.72.35,1.22.29,1.23s-.22-.44-.61-1.06a4.7,4.7,0,0,0-4.86-2.15A8.29,8.29,0,0,1,153.1,344.94Z" style="fill:#263238"></path><path d="M151.84,320.79a35,35,0,0,0-3.75,2.18,19.16,19.16,0,0,0-6.41,8c-.21.47-.36.95-.52,1.41l-.21.71a1.18,1.18,0,0,0-.1.47.78.78,0,0,0,.45,0l.69-.12c.46-.09.9-.19,1.33-.29a32.06,32.06,0,0,0,4.48-1.44c2.48-1,3.9-1.91,3.95-1.83a5.34,5.34,0,0,1-1,.68,26.22,26.22,0,0,1-2.84,1.49,28.16,28.16,0,0,1-4.5,1.56c-.44.12-.89.22-1.35.32l-.7.13a3,3,0,0,1-.39.06.59.59,0,0,1-.65-.76c0-.15.07-.25.1-.38l.21-.73c.17-.47.33-1,.54-1.45a18.54,18.54,0,0,1,6.68-8.13,17.17,17.17,0,0,1,2.84-1.52A5,5,0,0,1,151.84,320.79Z" style="fill:#263238"></path><path d="M129.55,354.27a5.19,5.19,0,0,1,1.09-.19c.7-.1,1.72-.2,3-.3a94.7,94.7,0,0,1,9.87-.22,96,96,0,0,1,9.85.78c1.25.17,2.26.33,2.95.47a4.8,4.8,0,0,1,1.07.25,4,4,0,0,1-1.1-.05l-3-.3c-2.5-.25-6-.52-9.82-.63s-7.32,0-9.83.07l-3,.13A4.14,4.14,0,0,1,129.55,354.27Z" style="fill:#263238"></path><path d="M128.37,361.9a4.45,4.45,0,0,1,1-.34c.64-.19,1.58-.44,2.75-.72,2.33-.57,5.58-1.25,9.19-1.85s6.91-1,9.3-1.18c1.2-.11,2.17-.18,2.84-.2a4.62,4.62,0,0,1,1,0,3.49,3.49,0,0,1-1,.2l-2.82.36c-2.37.3-5.65.74-9.26,1.34s-6.84,1.22-9.19,1.69l-2.78.56A4,4,0,0,1,128.37,361.9Z" style="fill:#263238"></path><path d="M169.25,353.41a10.38,10.38,0,0,0-3.15-.72.73.73,0,0,0-.64.21c-.16.22,0,.54.09.79a8.44,8.44,0,0,0,1.65,2.15.91.91,0,0,0,.53.31c.39,0,.61-.4.78-.75a5.92,5.92,0,0,0,.82-1.82Z" style="fill:#FFC100"></path><g style="opacity:0.2"><path d="M140.63,333.31a.47.47,0,0,0,0,.42c.11.16.34.15.53.11a29.77,29.77,0,0,0,10.57-4l1-6a3.54,3.54,0,0,0-.95-3.07h0A18.48,18.48,0,0,0,140.63,333.31Z"></path></g><g style="opacity:0.2"><path d="M51.33,414.45s18.35-7.22,21.75-12.32a68.92,68.92,0,0,0,5.38-9.67l-11.82,5.88s-9,9.47-16.7,12.58Z"></path></g><g style="opacity:0.2"><path d="M120.71,411.05c3.8.2,7.87.32,11.07-1.73a12.34,12.34,0,0,0,4.95-7.83,36.12,36.12,0,0,0,.42-9.47c-2.74,6.91-7.82,14.73-16.44,19"></path></g><path d="M33.8,357.4a1.35,1.35,0,0,1,0-.46c0-.29,0-.74.12-1.3a29.5,29.5,0,0,1,1-4.69,28,28,0,0,1,8.51-13.22A28.73,28.73,0,0,1,51,333.24a36.88,36.88,0,0,1,6.82-2.09,30.42,30.42,0,0,1,4.76-.61c.57,0,1,0,1.31,0a1.29,1.29,0,0,1,.45,0,14.14,14.14,0,0,1-1.74.18,37.26,37.26,0,0,0-4.71.77,39.47,39.47,0,0,0-6.71,2.18,29.07,29.07,0,0,0-7.35,4.43,28.58,28.58,0,0,0-8.49,12.94,32.24,32.24,0,0,0-1.17,4.61C33.92,356.78,33.84,357.4,33.8,357.4Z" style="fill:#263238"></path><path d="M120.46,375.17a5.68,5.68,0,0,1-.35-1.18,22.92,22.92,0,0,1-.49-3.36,25.82,25.82,0,0,1,1.65-11.18l.4.3c-.42.3-.85.63-1.28,1a24.9,24.9,0,0,0-3.52,3.52l-.44.54v-.7a22.13,22.13,0,0,1,1.85-8.79,19.7,19.7,0,0,1,1.21-2.31,4.11,4.11,0,0,1,.55-.77c.07,0-.65,1.15-1.47,3.2a23.41,23.41,0,0,0-1.64,8.67l-.45-.16a24.45,24.45,0,0,1,3.59-3.61c.43-.35.87-.69,1.3-1l.7-.51-.31.81a27,27,0,0,0-1.79,11C120.1,373.46,120.56,375.15,120.46,375.17Z" style="fill:#263238"></path><path d="M51.34,373.68a5.46,5.46,0,0,1-.1-1.17,28.55,28.55,0,0,1,.11-3.22,32.75,32.75,0,0,1,2.82-10.57l.38.31a21.1,21.1,0,0,0-2.61,2.27A20.19,20.19,0,0,0,49.71,364l-.47.69v-.83a26.14,26.14,0,0,1,2.29-10.65,24.28,24.28,0,0,1,1.52-2.83,4.78,4.78,0,0,1,.69-1c.07.05-.86,1.41-1.9,3.92a27.28,27.28,0,0,0-2.09,10.5l-.47-.14a19.15,19.15,0,0,1,2.28-2.8,20,20,0,0,1,2.68-2.33l.8-.57-.41.89a34.61,34.61,0,0,0-3,10.39c-.17,1.35-.23,2.44-.27,3.19A6.78,6.78,0,0,1,51.34,373.68Z" style="fill:#263238"></path></g></svg>